<?xml version="1.0" standalone="no"?>
<!DOCTYPE svg PUBLIC "-//W3C//DTD SVG 20010904//EN"
 "http://www.w3.org/TR/2001/REC-SVG-20010904/DTD/svg10.dtd">
<svg version="1.0" xmlns="http://www.w3.org/2000/svg"
 width="900.000000pt" height="900.000000pt" viewBox="0 0 900.000000 900.000000"
 preserveAspectRatio="xMidYMid meet">
<metadata>
Created by potrace 1.14, written by Peter Selinger 2001-2017
</metadata>
<g transform="translate(0.000000,900.000000) scale(0.100000,-0.100000)"
fill="#000000" stroke="none">
<path d="M3514 8541 c-5 -5 -29 -10 -59 -13 -11 -1 -26 -6 -32 -11 -7 -5 -13
-7 -13 -3 0 4 -13 0 -29 -8 -16 -9 -31 -12 -35 -9 -3 4 -6 1 -6 -6 0 -7 -5 -9
-10 -6 -6 4 -22 0 -35 -9 -13 -9 -31 -16 -39 -16 -8 0 -16 -3 -18 -7 -1 -5
-29 -21 -60 -37 -32 -16 -58 -33 -58 -38 0 -4 -6 -8 -14 -8 -7 0 -19 -7 -26
-15 -7 -9 -15 -13 -18 -10 -3 3 -11 -4 -19 -15 -8 -11 -19 -20 -24 -20 -6 0
-16 -6 -23 -12 -7 -7 -34 -31 -61 -53 -87 -72 -248 -238 -315 -325 -19 -25
-39 -50 -45 -57 -36 -43 -85 -111 -85 -118 0 -4 -6 -13 -12 -20 -25 -27 -34
-40 -37 -50 -11 -31 -25 -55 -34 -55 -6 0 -8 -3 -4 -6 3 -3 -8 -27 -24 -54
-16 -26 -29 -55 -29 -64 0 -9 -4 -16 -10 -16 -5 0 -10 -4 -10 -9 0 -5 -5 -22
-12 -38 -6 -15 -12 -30 -13 -33 -1 -3 -9 -23 -19 -45 -9 -21 -18 -46 -20 -55
-1 -8 -8 -35 -15 -60 -8 -25 -15 -52 -16 -60 -2 -8 -4 -15 -5 -15 -2 0 -7 -22
-15 -75 -4 -25 -10 -56 -12 -70 -3 -14 -6 -49 -6 -77 -1 -29 -4 -53 -7 -53 -3
0 -5 -41 -5 -90 0 -50 4 -90 9 -90 4 0 3 -7 -4 -15 -7 -8 -9 -15 -4 -15 5 0 9
-26 8 -58 0 -31 2 -61 5 -67 3 -5 6 -19 7 -30 1 -11 5 -31 8 -45 9 -38 19 -94
18 -100 0 -3 3 -9 7 -15 8 -9 22 -55 26 -80 1 -9 11 -37 32 -85 3 -8 7 -17 8
-20 3 -13 50 -106 54 -110 3 -3 7 -12 9 -20 2 -8 8 -16 13 -18 5 -2 9 -10 9
-18 0 -8 5 -14 10 -14 6 0 10 -5 10 -11 0 -5 19 -37 43 -71 23 -33 47 -67 52
-76 12 -19 26 -35 71 -87 42 -48 63 -82 42 -69 -18 12 -42 13 -292 19 -145 3
-223 1 -232 -5 -8 -7 -14 -8 -18 -1 -4 6 -12 8 -19 6 -7 -3 -46 -7 -87 -10
-97 -6 -173 -15 -179 -20 -2 -3 -11 1 -19 8 -13 9 -14 9 -8 0 4 -7 4 -13 -1
-14 -4 0 -21 -2 -38 -4 -54 -5 -151 -26 -260 -55 -22 -6 -46 -12 -52 -12 -7
-1 -13 -4 -13 -8 0 -3 -8 -6 -17 -7 -10 -1 -31 -7 -48 -14 -16 -7 -36 -11 -42
-10 -7 1 -13 -3 -13 -9 0 -6 -4 -9 -8 -6 -4 2 -21 -1 -37 -9 -120 -54 -171
-76 -174 -75 -2 1 -7 -2 -10 -7 -3 -4 -32 -21 -63 -38 -32 -16 -58 -33 -58
-38 0 -4 -4 -5 -10 -2 -5 3 -10 1 -10 -4 0 -6 -5 -11 -10 -11 -9 0 -101 -63
-137 -94 -7 -6 -20 -18 -30 -26 -9 -8 -33 -27 -51 -42 -19 -16 -33 -28 -30
-28 2 0 -21 -26 -51 -58 -31 -32 -65 -71 -76 -86 -11 -16 -25 -33 -31 -40 -11
-12 -98 -154 -100 -165 -7 -30 -18 -51 -27 -51 -6 0 -7 -3 -4 -6 3 -4 1 -16
-5 -28 -12 -21 -18 -41 -20 -63 -1 -7 -5 -13 -9 -13 -4 0 -6 -11 -4 -25 1 -14
-2 -25 -8 -25 -5 0 -7 -9 -4 -20 3 -10 1 -20 -3 -22 -21 -7 -37 -232 -25 -333
3 -22 7 -54 9 -71 2 -17 9 -55 17 -85 7 -30 12 -57 11 -61 -1 -5 3 -8 8 -8 5
0 9 -3 9 -7 -3 -17 14 -73 22 -73 5 0 9 -5 9 -12 0 -16 52 -122 65 -130 6 -5
6 -8 0 -8 -7 0 -7 -3 0 -8 6 -4 30 -36 55 -72 24 -36 55 -76 67 -90 13 -14 23
-28 23 -32 0 -5 8 -8 17 -8 9 0 14 -3 11 -6 -10 -9 123 -135 188 -179 20 -14
33 -25 28 -25 -5 -1 5 -8 21 -17 17 -9 31 -14 33 -12 2 2 8 -4 13 -14 6 -9 24
-24 42 -33 18 -9 34 -20 37 -23 3 -4 26 -18 53 -31 26 -14 47 -29 47 -33 0 -5
4 -6 9 -2 5 3 17 -2 25 -11 9 -8 16 -12 16 -8 0 4 8 0 17 -8 10 -9 36 -22 58
-29 22 -8 43 -18 46 -22 3 -5 10 -9 15 -9 5 0 20 -5 34 -11 14 -6 28 -11 32
-11 3 -1 10 -4 14 -9 4 -4 16 -7 26 -7 10 0 18 -5 18 -12 0 -6 3 -9 6 -5 4 3
22 0 41 -8 20 -8 44 -15 54 -15 11 0 19 -4 19 -8 0 -4 8 -8 18 -8 16 -1 25 -3
104 -23 20 -5 39 -6 42 -3 4 3 6 1 6 -4 0 -5 12 -11 28 -12 15 -1 38 -4 52 -7
49 -10 126 -18 177 -19 29 -1 53 -3 53 -6 0 -8 235 -4 248 4 6 3 14 1 18 -5 4
-8 3 -9 -4 -5 -7 4 -12 2 -12 -5 0 -6 -11 -22 -26 -35 -14 -13 -22 -24 -19
-24 4 0 0 -6 -7 -13 -7 -8 -24 -28 -38 -46 -14 -18 -31 -39 -38 -47 -7 -8 -10
-14 -6 -14 4 0 -3 -9 -16 -20 -13 -11 -20 -20 -16 -20 4 0 -4 -15 -18 -33 -15
-19 -26 -39 -26 -45 0 -7 -4 -12 -10 -12 -5 0 -10 -7 -10 -15 0 -8 -4 -15 -10
-15 -5 0 -9 -3 -8 -7 1 -8 -23 -62 -41 -93 -8 -13 -44 -99 -66 -155 -4 -11 -9
-29 -10 -39 -1 -11 -7 -22 -14 -24 -6 -2 -9 -7 -6 -11 2 -4 0 -25 -6 -46 -17
-61 -21 -79 -22 -102 -1 -13 -4 -23 -7 -23 -4 0 -6 -20 -5 -45 0 -25 -2 -45
-6 -45 -4 0 -7 -70 -7 -155 1 -85 4 -155 8 -155 4 0 6 -16 5 -35 -1 -19 3 -35
7 -35 5 0 7 -4 3 -9 -4 -8 5 -64 20 -116 1 -5 4 -14 5 -20 1 -5 10 -31 21 -56
10 -26 15 -50 12 -53 -4 -3 -1 -6 5 -6 6 0 13 -14 17 -30 4 -17 11 -30 16 -30
6 0 7 -5 4 -10 -3 -5 -1 -10 4 -10 6 0 11 -6 11 -14 0 -16 87 -151 119 -183
11 -12 21 -24 21 -26 0 -10 90 -94 95 -89 3 3 5 1 5 -5 0 -6 33 -35 73 -64 39
-30 74 -56 77 -59 10 -12 236 -119 265 -126 17 -4 35 -9 40 -13 6 -3 17 -7 25
-9 19 -4 30 -7 55 -15 26 -8 76 -18 95 -19 8 0 20 -4 25 -7 6 -4 27 -6 48 -6
20 1 37 -2 37 -6 0 -3 86 -7 190 -7 105 0 190 3 190 6 0 4 19 8 43 9 54 2 108
9 127 16 18 6 67 17 95 20 11 2 25 5 30 9 6 3 28 9 50 13 22 4 46 13 54 19 8
6 16 10 17 9 7 -5 64 10 64 16 0 4 9 7 20 8 18 2 48 13 130 51 19 8 37 16 40
17 3 0 32 14 65 30 33 16 63 28 68 27 4 -1 7 2 7 7 0 5 20 19 45 31 25 12 45
26 45 31 0 5 9 9 20 9 11 0 20 4 20 8 0 4 18 19 40 32 22 14 40 28 40 33 0 4
5 7 10 7 6 0 18 8 29 17 10 10 31 28 47 40 61 46 180 151 253 224 65 66 151
159 151 165 0 2 7 12 16 21 61 70 74 86 79 104 4 10 11 17 16 14 5 -4 9 -1 9
5 0 9 34 64 50 80 10 10 46 66 59 92 8 16 18 28 23 28 5 0 7 4 4 9 -3 5 1 14
9 21 8 7 15 16 15 21 0 5 11 27 25 49 14 22 22 40 18 40 -5 0 -3 4 4 8 6 4 15
22 20 40 l8 34 24 -44 c13 -24 30 -55 38 -70 8 -16 18 -28 21 -28 4 0 13 -12
19 -27 11 -25 32 -54 75 -103 7 -9 29 -36 49 -60 42 -52 97 -110 104 -110 2 0
15 -10 28 -22 65 -63 105 -96 111 -91 3 3 8 -2 12 -11 3 -9 10 -16 15 -16 4 0
39 -19 76 -43 37 -23 95 -56 128 -71 33 -16 72 -35 88 -43 15 -8 27 -12 27 -9
0 3 12 -1 27 -9 15 -8 30 -12 35 -9 4 3 8 0 8 -7 0 -7 3 -9 7 -6 3 4 12 2 20
-4 7 -6 13 -9 13 -6 0 3 15 0 34 -8 18 -8 37 -11 40 -7 4 3 10 1 14 -5 6 -10
56 -23 108 -27 11 -2 24 -5 30 -9 5 -3 22 -4 37 -3 15 2 27 0 27 -4 0 -6 55
-12 128 -13 17 0 32 -4 32 -8 0 -4 14 -4 30 1 16 5 30 5 30 1 0 -8 42 -7 57 2
7 4 14 3 18 -3 4 -6 11 -7 17 -4 6 4 45 9 87 11 83 4 146 10 146 13 0 1 9 3
20 4 11 2 43 6 70 10 28 5 51 8 52 8 2 -1 17 4 35 9 18 5 46 12 62 15 16 2 37
9 47 15 10 5 22 8 26 8 4 -1 21 3 36 9 16 7 34 12 41 12 6 0 16 4 21 8 6 4 28
14 50 21 22 7 83 34 135 59 52 25 97 44 99 43 2 -2 7 1 10 6 11 14 91 64 91
56 0 -5 5 0 11 9 5 10 14 18 20 18 8 0 64 35 79 50 3 3 21 16 40 29 40 28 53
38 98 79 17 17 32 28 32 26 0 -6 103 91 144 135 17 19 41 44 54 57 12 13 22
28 22 34 0 5 3 10 8 10 4 0 21 20 37 45 17 24 33 45 38 45 4 0 7 7 7 15 0 8 4
15 8 15 4 0 21 27 37 60 17 33 33 60 38 60 4 0 7 5 7 11 0 6 11 33 25 60 13
27 22 49 18 49 -3 0 0 6 6 13 6 8 8 17 4 20 -3 4 -1 7 5 7 7 0 12 9 12 20 0
11 4 20 8 20 5 0 9 6 10 13 0 14 6 37 21 84 5 17 7 34 3 37 -3 3 0 6 6 6 7 0
11 3 10 8 -1 4 3 30 7 57 5 28 10 58 11 68 1 9 3 20 4 25 5 16 5 282 -1 282
-3 0 -7 12 -8 28 -2 36 -8 77 -11 77 -1 0 -3 11 -4 25 0 14 -4 30 -7 35 -4 6
-10 29 -14 53 -4 23 -11 42 -16 42 -5 0 -8 3 -7 8 5 15 -26 122 -35 122 -6 0
-8 3 -4 6 3 3 -3 26 -13 50 -11 24 -16 44 -12 44 4 0 2 4 -3 8 -9 6 -68 119
-70 132 0 3 -10 19 -23 37 -12 17 -22 34 -22 37 0 10 -82 120 -92 124 -4 2 -8
10 -8 17 0 7 -7 15 -15 19 -8 3 -15 12 -15 21 0 8 -7 15 -15 15 -8 0 -15 4
-15 10 0 11 -198 210 -209 210 -4 0 -17 10 -29 23 -27 29 -35 35 -118 93 -38
26 -70 51 -72 56 -2 4 -10 8 -18 8 -8 0 -14 5 -14 11 0 5 -4 8 -9 4 -5 -3 -12
-1 -16 4 -12 20 -202 112 -310 150 -49 18 -101 37 -114 42 -13 5 -26 7 -29 4
-3 -2 -11 0 -19 6 -7 6 -13 8 -13 4 0 -4 -6 -3 -12 3 -7 6 -40 15 -73 22 -68
13 -89 18 -92 20 -5 4 -23 8 -50 9 l-28 1 25 19 c13 11 28 17 32 15 4 -3 8 -1
8 5 0 5 8 12 18 15 15 5 126 74 206 128 49 34 111 82 114 90 2 4 8 8 13 8 9 0
52 34 101 82 15 14 28 24 28 20 0 -6 210 205 253 256 15 17 27 36 27 42 0 5 4
10 8 10 5 0 24 21 42 48 19 26 38 49 42 50 4 2 8 9 8 16 0 7 8 21 18 32 10 10
25 34 32 52 8 17 18 32 23 32 4 0 17 19 28 43 11 23 40 80 64 127 25 47 45 91
45 98 0 6 5 12 10 12 6 0 10 6 8 13 -1 6 4 22 11 35 16 30 78 218 85 257 2 17
5 30 6 30 4 0 23 98 35 187 2 15 6 32 10 38 3 5 1 10 -5 10 -7 0 -8 5 -3 13 9
13 13 256 5 271 -3 5 -7 26 -8 45 -6 78 -28 187 -55 281 -7 25 -13 50 -14 55
0 6 -4 16 -8 23 -5 7 -11 24 -13 39 -3 15 -9 32 -13 38 -4 5 -16 33 -26 60
-21 57 -86 183 -118 228 -65 92 -186 207 -209 199 -5 -1 -8 2 -8 7 0 10 -133
71 -155 71 -8 0 -23 4 -33 9 -22 12 -72 25 -94 24 -10 0 -18 3 -18 8 0 5 -7 6
-15 3 -8 -3 -20 -2 -27 2 -14 9 -43 13 -120 16 -32 2 -58 6 -58 9 0 3 -23 3
-50 -1 -28 -4 -53 -3 -56 2 -3 4 -13 4 -22 -1 -9 -5 -30 -8 -47 -8 -16 0 -44
-3 -60 -7 -17 -3 -46 -8 -65 -11 -19 -2 -45 -6 -57 -9 -13 -3 -32 -8 -42 -10
-11 -3 -28 -9 -38 -13 -10 -5 -25 -9 -33 -8 -8 1 -20 -2 -26 -7 -6 -4 -19 -9
-30 -11 -10 -2 -27 -7 -36 -11 -9 -4 -22 -8 -30 -10 -7 -1 -17 -4 -23 -7 -17
-10 -90 -33 -91 -28 0 2 -9 -3 -18 -11 -10 -8 -23 -15 -30 -16 -6 -1 -29 -10
-51 -19 -22 -10 -43 -17 -47 -17 -5 1 -8 -3 -8 -9 0 -6 -6 -9 -14 -6 -8 3 -16
3 -18 -1 -4 -9 -81 -46 -90 -44 -5 1 -8 -2 -8 -8 0 -5 -9 -10 -20 -10 -11 0
-20 -4 -20 -9 0 -5 -10 -12 -22 -16 -13 -4 -25 -8 -28 -9 -10 -4 -73 -42 -104
-62 -17 -11 -46 -27 -64 -35 -17 -7 -32 -17 -32 -21 0 -5 -7 -8 -15 -8 -8 0
-15 -3 -15 -7 0 -5 -23 -21 -50 -38 -28 -16 -50 -33 -50 -37 0 -4 -7 -8 -15
-8 -9 0 -18 -7 -21 -15 -4 -8 -11 -15 -16 -15 -10 0 -114 -86 -154 -127 -12
-12 -25 -19 -28 -16 -3 4 -6 -2 -6 -12 0 -10 -3 -16 -6 -13 -6 7 -242 -228
-309 -306 -22 -26 -55 -64 -74 -84 -18 -20 -52 -61 -74 -89 -21 -29 -44 -53
-49 -53 -5 0 -7 -4 -4 -8 3 -5 -7 -22 -22 -39 -40 -46 -62 -76 -62 -85 0 -4
-5 -8 -11 -8 -5 0 -8 4 -5 9 3 4 8 34 10 66 3 32 8 60 10 63 3 2 1 13 -5 23
-5 11 -6 19 -1 19 10 0 14 83 14 320 0 185 -3 232 -18 360 -4 30 -7 72 -8 92
0 21 -4 38 -8 38 -5 0 -8 13 -8 28 0 16 -3 32 -7 36 -4 4 -8 17 -9 29 -1 12
-8 45 -17 74 -8 28 -13 54 -10 57 4 3 1 6 -5 6 -7 0 -11 3 -10 8 3 12 -33 113
-63 176 -16 33 -29 65 -29 73 0 7 -4 13 -8 13 -5 0 -16 15 -26 33 -36 68 -71
120 -103 153 -7 7 -13 16 -13 19 0 4 -13 20 -30 35 -16 15 -30 32 -30 37 0 4
-14 17 -30 28 -16 11 -30 25 -30 30 0 6 -12 19 -27 30 -15 11 -45 37 -67 57
-23 21 -46 38 -52 38 -7 0 -14 7 -18 15 -3 8 -12 15 -20 15 -8 0 -16 4 -18 9
-4 11 -114 81 -128 81 -5 0 -10 5 -10 10 0 6 -9 10 -20 10 -11 0 -20 4 -20 8
0 9 -114 63 -175 83 -22 8 -42 16 -45 19 -3 3 -14 6 -25 7 -33 4 -49 8 -60 15
-24 15 -299 31 -311 19z m993 -1093 c-3 -8 -6 -5 -6 6 -1 11 2 17 5 13 3 -3 4
-12 1 -19z m18 -28 c3 -5 1 -10 -4 -10 -6 0 -11 5 -11 10 0 6 2 10 4 10 3 0 8
-4 11 -10z m15 -40 c0 -5 -2 -10 -4 -10 -3 0 -8 5 -11 10 -3 6 -1 10 4 10 6 0
11 -4 11 -10z m2052 -251 c-18 -12 -35 -19 -38 -16 -3 3 7 12 23 21 42 23 53
19 15 -5z m-5082 -1951 c0 -4 -4 -8 -9 -8 -6 0 -12 4 -15 8 -3 5 1 9 9 9 8 0
15 -4 15 -9z m1850 -54 c0 -8 -5 -12 -10 -9 -6 4 -8 11 -5 16 9 14 15 11 15
-7z m1695 -1692 c-17 -15 -46 -38 -65 -51 l-35 -24 25 26 c24 25 89 74 100 76
3 1 -9 -11 -25 -27z m-978 -77 l28 -25 -37 17 c-21 9 -38 20 -38 25 0 15 19 8
47 -17z m-48 -461 c14 -12 -19 -1 -35 12 -18 14 -18 14 6 3 14 -6 27 -13 29
-15z"/>
</g>
</svg>
