<?xml version="1.0" standalone="no"?>
<!DOCTYPE svg PUBLIC "-//W3C//DTD SVG 20010904//EN"
 "http://www.w3.org/TR/2001/REC-SVG-20010904/DTD/svg10.dtd">
<svg version="1.0" xmlns="http://www.w3.org/2000/svg"
 width="420.000000pt" height="420.000000pt" viewBox="0 0 420.000000 420.000000"
 preserveAspectRatio="xMidYMid meet">
<metadata>
Created by potrace 1.14, written by Peter Selinger 2001-2017
</metadata>
<g transform="translate(0.000000,420.000000) scale(0.100000,-0.100000)"
fill="#000000" stroke="none">
<path d="M665 4162 c-106 -46 -178 -114 -223 -210 -24 -51 -27 -69 -27 -167 0
-105 2 -114 33 -177 18 -37 52 -87 75 -111 53 -54 157 -107 228 -116 52 -6 53
-7 61 -44 42 -204 279 -277 420 -129 96 101 86 266 -21 352 l-39 32 21 46 c18
38 22 66 22 147 0 93 -3 105 -34 169 -40 82 -107 153 -182 192 -49 26 -65 28
-174 31 -97 2 -128 0 -160 -15z m259 -82 c72 -27 139 -88 173 -158 24 -49 28
-69 28 -142 0 -76 -3 -91 -33 -148 -38 -74 -34 -89 31 -121 76 -37 108 -129
71 -207 -46 -98 -196 -113 -261 -27 -21 28 -28 50 -32 106 l-6 72 -80 8 c-174
17 -282 108 -316 267 -22 104 28 235 118 302 91 69 203 86 307 48z"/>
<path d="M1559 3977 c-53 -28 -99 -97 -106 -160 -6 -46 21 -122 55 -160 22
-24 78 -52 120 -60 83 -16 186 45 218 128 66 174 -122 339 -287 252z m177
-101 c50 -50 46 -121 -10 -168 -87 -71 -219 28 -176 133 19 45 56 69 107 69
38 0 50 -5 79 -34z"/>
<path d="M1585 2994 c-124 -8 -431 -45 -532 -65 -199 -38 -360 -97 -421 -153
-52 -47 -52 -42 -52 -528 0 -253 5 -491 10 -538 29 -236 128 -475 276 -670 49
-65 51 -70 26 -70 -30 0 -209 -59 -285 -94 -101 -47 -171 -102 -203 -160 -23
-41 -26 -57 -21 -106 10 -109 58 -187 172 -277 186 -147 520 -251 980 -304
147 -17 665 -18 815 -1 378 43 704 132 895 244 78 46 175 134 210 189 28 43
55 130 55 176 0 78 -78 165 -205 228 -72 35 -275 105 -307 105 -24 0 -23 22 2
45 11 10 36 44 57 75 l37 58 175 5 c198 6 256 18 365 75 184 96 316 318 316
532 0 314 -278 600 -582 600 l-58 0 0 165 c0 119 -4 175 -14 199 -47 112 -326
202 -789 252 -135 15 -773 27 -922 18z m935 -108 c354 -42 602 -107 677 -178
l23 -21 0 -445 c0 -501 -7 -585 -65 -759 -146 -439 -499 -755 -955 -855 -111
-25 -362 -30 -470 -9 -163 30 -369 112 -490 194 -238 161 -429 414 -510 673
-53 171 -53 169 -57 688 -2 269 -2 500 1 512 22 85 371 173 846 213 167 15
841 6 1000 -13z m956 -630 c218 -58 384 -272 384 -495 0 -239 -176 -457 -407
-506 -74 -16 -293 -20 -293 -6 0 4 13 37 29 72 16 35 34 83 41 105 l12 41 87
5 c107 7 165 32 226 100 160 178 32 468 -205 468 l-40 0 0 115 0 115 58 0 c31
0 80 -6 108 -14z m-18 -342 c57 -46 85 -107 78 -173 -10 -106 -85 -172 -204
-179 -59 -4 -64 -3 -59 14 15 50 28 150 34 258 l6 118 54 -4 c40 -4 63 -12 91
-34z m-2437 -1040 c13 -14 54 -49 91 -77 l67 -51 -49 -24 c-27 -12 -63 -39
-80 -59 -28 -31 -31 -42 -27 -76 7 -50 37 -81 112 -116 356 -167 1386 -152
1663 23 45 28 72 70 72 110 0 36 -49 88 -110 116 l-51 24 33 25 c18 14 61 50
95 78 34 29 68 53 76 53 7 0 68 -16 136 -35 226 -65 371 -155 371 -232 0 -33
-54 -89 -124 -127 -419 -233 -1577 -297 -2326 -130 -366 82 -558 206 -484 313
42 59 204 137 386 185 117 31 119 31 149 0z m329 -224 c92 -46 179 -76 307
-106 159 -37 393 -39 550 -6 116 25 251 71 337 114 55 28 62 29 100 18 54 -16
136 -58 136 -69 0 -15 -51 -47 -110 -68 -78 -29 -175 -50 -325 -69 -160 -21
-609 -24 -760 -5 -234 29 -404 73 -452 117 l-28 25 24 17 c30 22 121 61 144
62 10 0 44 -13 77 -30z m-540 -324 c600 -179 1700 -177 2285 4 141 44 144 45
105 19 -146 -94 -464 -183 -805 -226 -174 -22 -690 -25 -860 -5 -320 37 -566
97 -752 183 -85 39 -148 77 -108 65 11 -3 72 -21 135 -40z"/>
<path d="M1760 2683 c-214 -11 -437 -49 -640 -109 -69 -20 -135 -39 -147 -41
-13 -3 -52 11 -100 36 -43 23 -86 41 -95 41 -24 0 -41 -27 -34 -55 5 -20 28
-35 109 -75 500 -243 1373 -278 1983 -79 134 43 270 106 299 139 15 17 16 24
7 45 -16 34 -34 32 -129 -17 l-82 -41 -103 31 c-349 106 -689 146 -1068 125z
m300 -99 c-35 -7 -260 -9 -260 -2 0 4 62 7 138 7 75 -1 130 -3 122 -5z m-301
-20 c9 -8 -75 -2 -94 6 -12 5 1 6 35 3 30 -3 57 -7 59 -9z m424 9 c-13 -2 -35
-2 -50 0 -16 2 -5 4 22 4 28 0 40 -2 28 -4z m97 3 c0 -2 -11 -6 -25 -8 -13 -3
-22 -1 -19 3 5 9 44 13 44 5z m-657 -13 c-13 -2 -35 -2 -50 0 -16 2 -5 4 22 4
28 0 40 -2 28 -4z m-96 -15 c-2 -8 -22 -13 -49 -13 -25 0 -44 4 -41 8 3 5 24
6 47 3 29 -4 35 -3 21 3 -19 9 -19 10 3 10 15 1 22 -4 19 -11z m456 5 c-13 -2
-33 -2 -45 0 -13 2 -3 4 22 4 25 0 35 -2 23 -4z m124 1 c-3 -3 -12 -4 -19 -1
-8 3 -5 6 6 6 11 1 17 -2 13 -5z m80 0 c-3 -3 -12 -4 -19 -1 -8 3 -5 6 6 6 11
1 17 -2 13 -5z m216 -1 c-7 -2 -21 -2 -30 0 -10 3 -4 5 12 5 17 0 24 -2 18 -5z
m-680 -10 c-7 -2 -21 -2 -30 0 -10 3 -4 5 12 5 17 0 24 -2 18 -5z m750 0 c-7
-2 -21 -2 -30 0 -10 3 -4 5 12 5 17 0 24 -2 18 -5z m-236 -9 c-3 -3 -12 -4
-19 -1 -8 3 -5 6 6 6 11 1 17 -2 13 -5z m278 -4 c-3 -5 -14 -10 -23 -10 -15 0
-15 2 -2 10 20 13 33 13 25 0z m-1172 -7 c-7 -2 -19 -2 -25 0 -7 3 -2 5 12 5
14 0 19 -2 13 -5z m1264 -9 c-3 -3 -12 -4 -19 -1 -8 3 -5 6 6 6 11 1 17 -2 13
-5z m-1330 -10 c-3 -3 -12 -4 -19 -1 -8 3 -5 6 6 6 11 1 17 -2 13 -5z m-46
-13 c-8 -5 -20 -7 -28 -4 -21 8 -15 13 15 13 20 0 23 -3 13 -9z m1456 3 c-3
-3 -12 -4 -19 -1 -8 3 -5 6 6 6 11 1 17 -2 13 -5z m-1507 -14 c0 -5 -7 -10
-15 -10 -8 0 -15 5 -15 10 0 6 7 10 15 10 8 0 15 -4 15 -10z m1495 -10 c32 12
42 13 30 1 -20 -18 -62 -21 -81 -5 -18 14 -18 15 3 5 15 -8 30 -8 48 -1z
m-1442 -7 c-7 -2 -21 -2 -30 0 -10 3 -4 5 12 5 17 0 24 -2 18 -5z m1254 -19
c-3 -3 -12 -4 -19 -1 -8 3 -5 6 6 6 11 1 17 -2 13 -5z m130 0 c-3 -3 -12 -4
-19 -1 -8 3 -5 6 6 6 11 1 17 -2 13 -5z m-1280 -10 c-3 -3 -12 -4 -19 -1 -8 3
-5 6 6 6 11 1 17 -2 13 -5z m120 0 c-3 -3 -12 -4 -19 -1 -8 3 -5 6 6 6 11 1
17 -2 13 -5z m1116 -1 c-7 -2 -21 -2 -30 0 -10 3 -4 5 12 5 17 0 24 -2 18 -5z
m-1063 -14 l-35 -6 40 -3 c34 -3 36 -4 10 -7 -16 -2 -64 3 -105 10 l-75 13
100 0 c60 0 86 -3 65 -7z m167 5 c-3 -3 -12 -4 -19 -1 -8 3 -5 6 6 6 11 1 17
-2 13 -5z m630 0 c-3 -3 -12 -4 -19 -1 -8 3 -5 6 6 6 11 1 17 -2 13 -5z m211
1 c-11 -12 -191 -32 -221 -25 -26 6 -18 8 38 10 39 0 88 5 110 9 48 10 80 13
73 6z m-921 -11 c-3 -3 -12 -4 -19 -1 -8 3 -5 6 6 6 11 1 17 -2 13 -5z m226
-1 c-13 -2 -33 -2 -45 0 -13 2 -3 4 22 4 25 0 35 -2 23 -4z m297 0 c-33 -3
-41 -7 -30 -15 12 -8 11 -9 -3 -4 -10 3 -26 6 -35 7 -34 2 34 17 73 16 l40 0
-45 -4z m-463 -9 c-3 -3 -12 -4 -19 -1 -8 3 -5 6 6 6 11 1 17 -2 13 -5z m-64
-11 c-7 -2 -19 -2 -25 0 -7 3 -2 5 12 5 14 0 19 -2 13 -5z m552 -3 c3 -6 -1
-7 -9 -4 -18 7 -21 14 -7 14 6 0 13 -4 16 -10z m105 0 c8 -5 11 -10 5 -10 -5
0 -17 5 -25 10 -8 5 -10 10 -5 10 6 0 17 -5 25 -10z m-577 -7 c-7 -2 -21 -2
-30 0 -10 3 -4 5 12 5 17 0 24 -2 18 -5z m80 0 c-7 -2 -19 -2 -25 0 -7 3 -2 5
12 5 14 0 19 -2 13 -5z m167 -3 c0 -5 -15 -9 -32 -9 l-33 1 30 8 c17 4 31 8
33 9 1 0 2 -3 2 -9z m110 -6 c0 -2 -7 -4 -15 -4 -8 0 -15 4 -15 10 0 5 7 7 15
4 8 -4 15 -8 15 -10z m173 9 c-7 -2 -21 -2 -30 0 -10 3 -4 5 12 5 17 0 24 -2
18 -5z m-370 -10 c-7 -2 -21 -2 -30 0 -10 3 -4 5 12 5 17 0 24 -2 18 -5z"/>
</g>
</svg>
